<svg xmlns="http://www.w3.org/2000/svg" xmlns:xlink="http://www.w3.org/1999/xlink" width="512" zoomAndPan="magnify" viewBox="0 0 384 383.999986" height="512" preserveAspectRatio="xMidYMid meet" version="1.0"><defs><clipPath id="4892183f86"><path d="M 132 66.238281 L 317 66.238281 L 317 276 L 132 276 Z M 132 66.238281 " clip-rule="nonzero"/></clipPath><clipPath id="2a7e6fa99a"><path d="M 18 66.238281 L 104 66.238281 L 104 205 L 18 205 Z M 18 66.238281 " clip-rule="nonzero"/></clipPath><clipPath id="bdfc88c126"><path d="M 0 224 L 384 224 L 384 317.488281 L 0 317.488281 Z M 0 224 " clip-rule="nonzero"/></clipPath></defs><g clip-path="url(#4892183f86)"><path fill="#4abd0f" d="M 154.804688 119.425781 C 170.433594 116.4375 182.550781 104.324219 185.539062 88.695312 L 262.996094 88.695312 C 265.984375 104.324219 278.101562 116.4375 293.730469 119.425781 L 293.730469 275.394531 L 316.183594 275.394531 L 316.183594 82.113281 C 316.183594 73.347656 309.078125 66.238281 300.3125 66.238281 L 148.222656 66.238281 C 139.457031 66.238281 132.351562 73.347656 132.351562 82.113281 L 132.351562 275.355469 L 154.804688 275.355469 Z M 154.804688 119.425781 " fill-opacity="1" fill-rule="nonzero"/></g><path fill="#4abd0f" d="M 168.859375 212.152344 C 168.859375 242.683594 193.695312 267.5625 224.269531 267.5625 C 254.800781 267.5625 279.675781 242.722656 279.675781 212.152344 C 279.675781 181.621094 254.839844 156.742188 224.269531 156.742188 C 193.738281 156.742188 168.859375 181.582031 168.859375 212.152344 Z M 218.167969 178.996094 L 218.167969 171.28125 C 218.167969 170.109375 219.097656 169.183594 220.269531 169.183594 L 228.304688 169.183594 C 229.476562 169.183594 230.40625 170.109375 230.40625 171.28125 L 230.40625 178.875 C 238.683594 179.640625 245.226562 186.0625 246.074219 194.300781 C 246.117188 194.867188 245.953125 195.390625 245.550781 195.835938 C 245.148438 196.28125 244.582031 196.5625 243.933594 196.5625 L 235.816406 196.5625 C 234.847656 196.5625 234 195.917969 233.796875 194.988281 C 233.3125 192.644531 231.214844 190.988281 228.832031 190.988281 L 221.722656 190.988281 C 217.644531 190.988281 214.171875 193.9375 213.769531 197.734375 C 213.527344 199.875 214.210938 201.976562 215.664062 203.550781 C 217.078125 205.125 219.140625 206.054688 221.238281 206.054688 L 227.335938 206.054688 C 232.910156 206.054688 238.242188 208.4375 241.996094 212.554688 C 245.792969 216.757812 247.570312 222.167969 247.003906 227.78125 C 246.15625 236.382812 239.371094 243.492188 230.40625 245.1875 L 230.40625 253.023438 C 230.40625 254.191406 229.476562 255.121094 228.304688 255.121094 L 220.269531 255.121094 C 219.097656 255.121094 218.167969 254.191406 218.167969 253.023438 L 218.167969 245.429688 C 209.890625 244.664062 203.347656 238.242188 202.5 230.003906 C 202.460938 229.4375 202.621094 228.910156 203.023438 228.46875 C 203.429688 228.023438 203.996094 227.742188 204.640625 227.742188 L 212.757812 227.742188 C 213.726562 227.742188 214.574219 228.386719 214.777344 229.316406 C 215.261719 231.65625 217.363281 233.3125 219.746094 233.3125 L 226.851562 233.3125 C 230.929688 233.3125 234.445312 230.367188 234.808594 226.570312 C 235.050781 224.429688 234.363281 222.328125 232.910156 220.753906 C 231.496094 219.179688 229.4375 218.25 227.335938 218.25 L 222.085938 218.25 C 211.546875 218.25 202.539062 210.414062 201.53125 200.441406 C 200.519531 189.941406 207.789062 180.609375 218.167969 178.996094 Z M 218.167969 178.996094 " fill-opacity="1" fill-rule="nonzero"/><path fill="#4abd0f" d="M 238.441406 123.585938 C 238.441406 115.753906 232.101562 109.410156 224.269531 109.410156 C 216.433594 109.410156 210.09375 115.753906 210.09375 123.585938 C 210.09375 131.421875 216.433594 137.761719 224.269531 137.761719 C 232.101562 137.761719 238.441406 131.421875 238.441406 123.585938 Z M 238.441406 123.585938 " fill-opacity="1" fill-rule="nonzero"/><g clip-path="url(#2a7e6fa99a)"><path fill="#4abd0f" d="M 54.691406 201.933594 C 57.921875 205.691406 63.613281 205.691406 66.683594 201.933594 L 101.65625 159.851562 C 105.777344 154.804688 102.183594 147.089844 95.601562 147.089844 L 78.316406 147.089844 L 78.316406 71.976562 C 78.316406 68.824219 75.769531 66.28125 72.621094 66.28125 L 48.792969 66.28125 C 45.644531 66.28125 43.097656 68.824219 43.097656 71.976562 L 43.097656 147.089844 L 25.894531 147.089844 C 19.3125 147.089844 15.558594 154.84375 19.835938 159.851562 Z M 54.691406 201.933594 " fill-opacity="1" fill-rule="nonzero"/></g><g clip-path="url(#bdfc88c126)"><path fill="#4abd0f" d="M 372.523438 224.390625 L 333.066406 224.390625 L 333.066406 246.964844 L 350.550781 246.964844 C 356.449219 246.964844 361.214844 251.730469 361.214844 257.625 L 361.214844 284.441406 C 361.214844 290.339844 356.449219 295.101562 350.550781 295.101562 L 97.984375 295.101562 C 92.085938 295.101562 87.320312 290.339844 87.320312 284.441406 L 87.320312 257.667969 C 87.320312 251.769531 92.085938 247.003906 97.984375 247.003906 L 115.46875 247.003906 L 115.46875 224.429688 L 11.476562 224.429688 C 5.257812 224.429688 0.167969 229.476562 0.167969 235.738281 L 0.167969 306.453125 C 0.167969 312.671875 5.21875 317.757812 11.476562 317.757812 L 372.523438 317.757812 C 378.742188 317.757812 383.832031 312.710938 383.832031 306.453125 L 383.832031 235.65625 C 383.832031 229.4375 378.78125 224.390625 372.523438 224.390625 Z M 372.523438 224.390625 " fill-opacity="1" fill-rule="nonzero"/></g></svg>