<svg xmlns="http://www.w3.org/2000/svg" xmlns:xlink="http://www.w3.org/1999/xlink" width="512" zoomAndPan="magnify" viewBox="0 0 384 383.999986" height="512" preserveAspectRatio="xMidYMid meet" version="1.0"><path fill="#4abd0f" d="M 192 0 C 188.859375 0 185.71875 0.078125 182.578125 0.230469 C 179.441406 0.386719 176.308594 0.617188 173.179688 0.925781 C 170.054688 1.234375 166.9375 1.617188 163.828125 2.078125 C 160.71875 2.539062 157.625 3.078125 154.542969 3.6875 C 151.460938 4.300781 148.394531 4.992188 145.347656 5.753906 C 142.300781 6.515625 139.273438 7.355469 136.265625 8.265625 C 133.257812 9.179688 130.277344 10.164062 127.316406 11.222656 C 124.359375 12.28125 121.429688 13.414062 118.523438 14.613281 C 115.621094 15.816406 112.75 17.089844 109.910156 18.433594 C 107.070312 19.777344 104.261719 21.191406 101.492188 22.671875 C 98.71875 24.152344 95.988281 25.699219 93.292969 27.316406 C 90.597656 28.929688 87.941406 30.613281 85.332031 32.359375 C 82.71875 34.105469 80.148438 35.914062 77.625 37.785156 C 75.101562 39.65625 72.625 41.589844 70.195312 43.582031 C 67.765625 45.574219 65.390625 47.628906 63.0625 49.738281 C 60.734375 51.847656 58.457031 54.011719 56.234375 56.234375 C 54.011719 58.457031 51.847656 60.734375 49.738281 63.0625 C 47.628906 65.390625 45.574219 67.765625 43.582031 70.195312 C 41.589844 72.625 39.65625 75.101562 37.785156 77.625 C 35.914062 80.148438 34.105469 82.71875 32.359375 85.332031 C 30.613281 87.941406 28.929688 90.597656 27.316406 93.292969 C 25.699219 95.988281 24.152344 98.71875 22.671875 101.492188 C 21.191406 104.261719 19.777344 107.070312 18.433594 109.910156 C 17.089844 112.75 15.816406 115.621094 14.613281 118.523438 C 13.414062 121.429688 12.28125 124.359375 11.222656 127.316406 C 10.164062 130.277344 9.179688 133.257812 8.265625 136.265625 C 7.355469 139.273438 6.515625 142.300781 5.753906 145.347656 C 4.992188 148.394531 4.300781 151.460938 3.6875 154.542969 C 3.078125 157.625 2.539062 160.71875 2.078125 163.828125 C 1.617188 166.9375 1.234375 170.054688 0.925781 173.179688 C 0.617188 176.308594 0.386719 179.441406 0.230469 182.578125 C 0.078125 185.71875 0 188.859375 0 192 C 0 195.140625 0.078125 198.28125 0.230469 201.421875 C 0.386719 204.558594 0.617188 207.691406 0.925781 210.820312 C 1.234375 213.945312 1.617188 217.0625 2.078125 220.171875 C 2.539062 223.28125 3.078125 226.375 3.6875 229.457031 C 4.300781 232.539062 4.992188 235.605469 5.753906 238.652344 C 6.515625 241.699219 7.355469 244.726562 8.265625 247.734375 C 9.179688 250.742188 10.164062 253.722656 11.222656 256.683594 C 12.28125 259.640625 13.414062 262.570312 14.613281 265.476562 C 15.816406 268.378906 17.089844 271.25 18.433594 274.089844 C 19.777344 276.929688 21.191406 279.738281 22.671875 282.507812 C 24.152344 285.28125 25.699219 288.011719 27.316406 290.707031 C 28.929688 293.402344 30.613281 296.058594 32.359375 298.667969 C 34.105469 301.28125 35.914062 303.851562 37.785156 306.375 C 39.65625 308.898438 41.589844 311.375 43.582031 313.804688 C 45.574219 316.230469 47.628906 318.609375 49.738281 320.9375 C 51.847656 323.265625 54.011719 325.542969 56.234375 327.765625 C 58.457031 329.988281 60.734375 332.152344 63.0625 334.261719 C 65.390625 336.371094 67.765625 338.425781 70.195312 340.417969 C 72.625 342.410156 75.101562 344.34375 77.625 346.214844 C 80.148438 348.085938 82.71875 349.894531 85.332031 351.640625 C 87.941406 353.386719 90.597656 355.070312 93.292969 356.683594 C 95.988281 358.300781 98.71875 359.847656 101.492188 361.328125 C 104.261719 362.808594 107.070312 364.222656 109.910156 365.566406 C 112.75 366.910156 115.621094 368.183594 118.523438 369.386719 C 121.429688 370.585938 124.359375 371.71875 127.316406 372.777344 C 130.277344 373.835938 133.257812 374.820312 136.265625 375.734375 C 139.273438 376.644531 142.300781 377.484375 145.347656 378.246094 C 148.394531 379.007812 151.460938 379.699219 154.542969 380.3125 C 157.625 380.921875 160.71875 381.460938 163.828125 381.921875 C 166.9375 382.382812 170.054688 382.765625 173.179688 383.074219 C 176.308594 383.382812 179.441406 383.613281 182.578125 383.769531 C 185.71875 383.921875 188.859375 384 192 384 C 195.140625 384 198.28125 383.921875 201.421875 383.769531 C 204.558594 383.613281 207.691406 383.382812 210.820312 383.074219 C 213.945312 382.765625 217.0625 382.382812 220.171875 381.921875 C 223.28125 381.460938 226.375 380.921875 229.457031 380.3125 C 232.539062 379.699219 235.605469 379.007812 238.652344 378.246094 C 241.699219 377.484375 244.726562 376.644531 247.734375 375.734375 C 250.742188 374.820312 253.722656 373.835938 256.683594 372.777344 C 259.640625 371.71875 262.570312 370.585938 265.476562 369.386719 C 268.378906 368.183594 271.25 366.910156 274.089844 365.566406 C 276.929688 364.222656 279.738281 362.808594 282.507812 361.328125 C 285.28125 359.847656 288.011719 358.300781 290.707031 356.683594 C 293.402344 355.070312 296.058594 353.386719 298.667969 351.640625 C 301.28125 349.894531 303.851562 348.085938 306.375 346.214844 C 308.898438 344.34375 311.375 342.410156 313.804688 340.417969 C 316.234375 338.425781 318.609375 336.371094 320.9375 334.261719 C 323.265625 332.152344 325.542969 329.988281 327.765625 327.765625 C 329.988281 325.542969 332.152344 323.265625 334.261719 320.9375 C 336.371094 318.609375 338.425781 316.234375 340.417969 313.804688 C 342.410156 311.375 344.34375 308.898438 346.214844 306.375 C 348.085938 303.851562 349.894531 301.28125 351.640625 298.667969 C 353.386719 296.058594 355.070312 293.402344 356.683594 290.707031 C 358.300781 288.011719 359.847656 285.28125 361.328125 282.507812 C 362.808594 279.738281 364.222656 276.929688 365.566406 274.089844 C 366.910156 271.25 368.183594 268.378906 369.386719 265.476562 C 370.585938 262.570312 371.71875 259.640625 372.777344 256.683594 C 373.835938 253.722656 374.820312 250.742188 375.734375 247.734375 C 376.644531 244.726562 377.484375 241.699219 378.246094 238.652344 C 379.007812 235.605469 379.699219 232.539062 380.3125 229.457031 C 380.921875 226.375 381.460938 223.28125 381.921875 220.171875 C 382.382812 217.0625 382.765625 213.945312 383.074219 210.820312 C 383.382812 207.691406 383.613281 204.558594 383.769531 201.421875 C 383.921875 198.28125 384 195.140625 384 192 C 384 188.859375 383.921875 185.71875 383.769531 182.578125 C 383.613281 179.441406 383.382812 176.308594 383.074219 173.179688 C 382.765625 170.054688 382.382812 166.9375 381.921875 163.828125 C 381.460938 160.71875 380.921875 157.625 380.3125 154.542969 C 379.699219 151.460938 379.007812 148.394531 378.246094 145.347656 C 377.484375 142.300781 376.644531 139.273438 375.734375 136.265625 C 374.820312 133.257812 373.835938 130.277344 372.777344 127.316406 C 371.71875 124.359375 370.585938 121.429688 369.386719 118.523438 C 368.183594 115.621094 366.910156 112.75 365.566406 109.910156 C 364.222656 107.070312 362.808594 104.261719 361.328125 101.492188 C 359.847656 98.71875 358.300781 95.988281 356.683594 93.292969 C 355.070312 90.597656 353.386719 87.941406 351.640625 85.332031 C 349.894531 82.71875 348.085938 80.148438 346.214844 77.625 C 344.34375 75.101562 342.410156 72.625 340.417969 70.195312 C 338.425781 67.765625 336.371094 65.390625 334.261719 63.0625 C 332.152344 60.734375 329.988281 58.457031 327.765625 56.234375 C 325.542969 54.011719 323.265625 51.847656 320.9375 49.738281 C 318.609375 47.628906 316.234375 45.574219 313.804688 43.582031 C 311.375 41.589844 308.898438 39.65625 306.375 37.785156 C 303.851562 35.914062 301.28125 34.105469 298.667969 32.359375 C 296.058594 30.613281 293.402344 28.929688 290.707031 27.316406 C 288.011719 25.699219 285.28125 24.152344 282.507812 22.671875 C 279.738281 21.191406 276.929688 19.777344 274.089844 18.433594 C 271.25 17.089844 268.378906 15.816406 265.476562 14.613281 C 262.570312 13.414062 259.640625 12.28125 256.683594 11.222656 C 253.722656 10.164062 250.742188 9.179688 247.734375 8.265625 C 244.726562 7.355469 241.699219 6.515625 238.652344 5.753906 C 235.605469 4.992188 232.539062 4.300781 229.457031 3.6875 C 226.375 3.078125 223.28125 2.539062 220.171875 2.078125 C 217.0625 1.617188 213.945312 1.234375 210.820312 0.925781 C 207.691406 0.617188 204.558594 0.386719 201.421875 0.230469 C 198.28125 0.078125 195.140625 0 192 0 Z M 112 173.761719 C 112.300781 173.03125 112.699219 172.359375 113.199219 171.746094 C 113.699219 171.132812 114.273438 170.605469 114.929688 170.164062 C 115.585938 169.722656 116.289062 169.386719 117.042969 169.15625 C 117.796875 168.921875 118.570312 168.804688 119.359375 168.800781 L 147.839844 168.800781 L 147.839844 88.800781 C 147.839844 88.273438 147.890625 87.753906 147.992188 87.238281 C 148.097656 86.722656 148.246094 86.222656 148.449219 85.738281 C 148.648438 85.253906 148.894531 84.792969 149.1875 84.355469 C 149.480469 83.917969 149.8125 83.515625 150.183594 83.144531 C 150.554688 82.773438 150.957031 82.441406 151.394531 82.148438 C 151.832031 81.855469 152.292969 81.609375 152.777344 81.410156 C 153.265625 81.207031 153.765625 81.054688 154.277344 80.953125 C 154.792969 80.851562 155.316406 80.800781 155.839844 80.800781 L 228.960938 80.800781 C 229.484375 80.800781 230.003906 80.851562 230.519531 80.953125 C 231.035156 81.054688 231.535156 81.207031 232.019531 81.410156 C 232.507812 81.609375 232.96875 81.855469 233.40625 82.148438 C 233.839844 82.441406 234.246094 82.773438 234.617188 83.144531 C 234.988281 83.515625 235.320312 83.917969 235.613281 84.355469 C 235.902344 84.792969 236.148438 85.253906 236.351562 85.738281 C 236.550781 86.222656 236.703125 86.722656 236.804688 87.238281 C 236.910156 87.753906 236.960938 88.273438 236.960938 88.800781 L 236.960938 168.800781 L 265.441406 168.800781 C 266.222656 168.8125 266.988281 168.933594 267.734375 169.167969 C 268.480469 169.40625 269.179688 169.742188 269.824219 170.183594 C 270.472656 170.625 271.042969 171.148438 271.539062 171.753906 C 272.03125 172.363281 272.425781 173.027344 272.726562 173.753906 C 273.023438 174.476562 273.210938 175.230469 273.289062 176.007812 C 273.367188 176.785156 273.328125 177.5625 273.179688 178.328125 C 273.03125 179.097656 272.773438 179.828125 272.410156 180.523438 C 272.042969 181.214844 271.589844 181.839844 271.039062 182.398438 L 234.71875 218.71875 L 197.601562 256 C 196.863281 256.753906 196.007812 257.339844 195.039062 257.753906 C 194.066406 258.167969 193.054688 258.386719 192 258.398438 C 190.917969 258.40625 189.875 258.203125 188.875 257.785156 C 187.875 257.367188 186.996094 256.773438 186.238281 256 L 149.921875 219.199219 L 113.441406 182.71875 C 112.878906 182.132812 112.421875 181.476562 112.058594 180.753906 C 111.699219 180.027344 111.457031 179.265625 111.328125 178.464844 C 111.199219 177.664062 111.191406 176.863281 111.304688 176.0625 C 111.421875 175.257812 111.652344 174.492188 112 173.761719 Z M 273.121094 294.398438 C 273.121094 294.925781 273.070312 295.445312 272.964844 295.960938 C 272.863281 296.476562 272.710938 296.976562 272.511719 297.460938 C 272.308594 297.945312 272.0625 298.40625 271.773438 298.84375 C 271.480469 299.28125 271.148438 299.683594 270.777344 300.058594 C 270.40625 300.429688 270 300.761719 269.566406 301.050781 C 269.128906 301.34375 268.667969 301.589844 268.179688 301.789062 C 267.695312 301.992188 267.195312 302.144531 266.679688 302.246094 C 266.164062 302.347656 265.644531 302.398438 265.121094 302.398438 L 118.878906 302.398438 C 118.355469 302.398438 117.835938 302.347656 117.320312 302.246094 C 116.804688 302.144531 116.304688 301.992188 115.820312 301.789062 C 115.332031 301.589844 114.871094 301.34375 114.433594 301.050781 C 114 300.761719 113.59375 300.429688 113.222656 300.058594 C 112.851562 299.683594 112.519531 299.28125 112.226562 298.84375 C 111.9375 298.40625 111.691406 297.945312 111.488281 297.460938 C 111.289062 296.976562 111.136719 296.476562 111.035156 295.960938 C 110.929688 295.445312 110.878906 294.925781 110.878906 294.398438 L 110.878906 278.398438 C 110.878906 277.875 110.929688 277.355469 111.035156 276.839844 C 111.136719 276.324219 111.289062 275.824219 111.488281 275.339844 C 111.691406 274.851562 111.9375 274.390625 112.226562 273.957031 C 112.519531 273.519531 112.851562 273.113281 113.222656 272.742188 C 113.59375 272.371094 114 272.039062 114.433594 271.75 C 114.871094 271.457031 115.332031 271.210938 115.820312 271.007812 C 116.304688 270.808594 116.804688 270.65625 117.320312 270.554688 C 117.835938 270.453125 118.355469 270.398438 118.878906 270.398438 L 264.960938 270.398438 C 265.484375 270.398438 266.003906 270.453125 266.519531 270.554688 C 267.035156 270.65625 267.535156 270.808594 268.019531 271.007812 C 268.507812 271.210938 268.96875 271.457031 269.40625 271.75 C 269.839844 272.039062 270.246094 272.371094 270.617188 272.742188 C 270.988281 273.113281 271.320312 273.519531 271.613281 273.957031 C 271.902344 274.390625 272.148438 274.851562 272.351562 275.339844 C 272.550781 275.824219 272.703125 276.324219 272.804688 276.839844 C 272.910156 277.355469 272.960938 277.875 272.960938 278.398438 L 272.960938 294.398438 Z M 273.121094 294.398438 " fill-opacity="1" fill-rule="nonzero"/></svg>