<svg xmlns="http://www.w3.org/2000/svg" xmlns:xlink="http://www.w3.org/1999/xlink" width="512" zoomAndPan="magnify" viewBox="0 0 384 383.999986" height="512" preserveAspectRatio="xMidYMid meet" version="1.0"><path fill="#4abd0f" d="M 191.996094 49.992188 C 156.394531 49.992188 127.53125 80.902344 127.53125 119.03125 C 127.53125 157.160156 156.394531 188.070312 191.996094 188.070312 C 227.597656 188.070312 256.464844 157.160156 256.464844 119.03125 C 256.464844 80.902344 227.597656 49.992188 191.996094 49.992188 " fill-opacity="1" fill-rule="nonzero"/><path fill="#4abd0f" d="M 308.722656 324.53125 C 308.96875 322.757812 309.105469 320.949219 309.105469 319.105469 L 309.105469 293.320312 C 309.105469 250.191406 274.132812 215.226562 231.003906 215.226562 L 152.992188 215.226562 C 109.855469 215.226562 74.894531 250.191406 74.894531 293.320312 L 74.894531 319.105469 C 74.894531 320.949219 75.03125 322.757812 75.277344 324.53125 C 38.527344 292.128906 15.304688 244.726562 15.304688 192 C 15.304688 94.570312 94.570312 15.304688 192 15.304688 C 289.429688 15.304688 368.695312 94.570312 368.695312 192 C 368.695312 244.726562 345.46875 292.128906 308.722656 324.53125 Z M 192 0 C 86.128906 0 0 86.128906 0 192 C 0 297.871094 86.128906 384 192 384 C 297.871094 384 384 297.871094 384 192 C 384 86.128906 297.871094 0 192 0 " fill-opacity="1" fill-rule="nonzero"/></svg>