<svg xmlns="http://www.w3.org/2000/svg" xmlns:xlink="http://www.w3.org/1999/xlink" width="512" zoomAndPan="magnify" viewBox="0 0 384 383.999986" height="512" preserveAspectRatio="xMidYMid meet" version="1.0"><path fill="#4abd0f" d="M 54.449219 170.511719 C 60.15625 134.21875 79.65625 102.320312 109.359375 80.699219 C 131.4375 64.625 157.1875 55.664062 183.859375 54.464844 L 165.964844 72.363281 L 182.257812 88.65625 L 226.605469 44.3125 L 182.261719 -0.0273438 L 165.96875 16.269531 L 181.21875 31.519531 C 150.632812 33.191406 121.140625 43.613281 95.796875 62.066406 C 61.117188 87.316406 38.347656 124.558594 31.683594 166.933594 C 25.695312 205.03125 33.605469 244.019531 53.964844 276.714844 L 73.527344 264.539062 C 56.09375 236.535156 49.320312 203.144531 54.449219 170.511719 Z M 54.449219 170.511719 " fill-opacity="1" fill-rule="nonzero"/><path fill="#4abd0f" d="M 87.96875 283.777344 L 70.808594 299.160156 C 79.585938 308.953125 89.542969 317.644531 100.398438 324.988281 L 113.316406 305.902344 C 104.019531 299.613281 95.488281 292.167969 87.96875 283.777344 Z M 87.96875 283.777344 " fill-opacity="1" fill-rule="nonzero"/><path fill="#4abd0f" d="M 329.957031 107.207031 L 310.390625 119.386719 C 327.824219 147.386719 334.601562 180.777344 329.46875 213.410156 C 323.761719 249.703125 304.261719 281.601562 274.558594 303.222656 C 252.484375 319.296875 226.730469 328.257812 200.058594 329.457031 L 217.957031 311.558594 L 201.660156 295.265625 L 157.316406 339.609375 L 201.65625 383.949219 L 217.953125 367.65625 L 202.707031 352.40625 C 233.289062 350.734375 262.777344 340.304688 288.125 321.855469 C 322.800781 296.609375 345.570312 259.367188 352.234375 216.992188 C 358.222656 178.894531 350.3125 139.902344 329.957031 107.207031 Z M 329.957031 107.207031 " fill-opacity="1" fill-rule="nonzero"/><path fill="#4abd0f" d="M 295.953125 100.144531 L 313.113281 84.761719 C 304.332031 74.96875 294.375 66.28125 283.519531 58.933594 L 270.605469 78.019531 C 279.902344 84.308594 288.429688 91.753906 295.953125 100.144531 Z M 295.953125 100.144531 " fill-opacity="1" fill-rule="nonzero"/><path fill="#4abd0f" d="M 280.652344 192.179688 C 280.652344 142.292969 240.214844 101.851562 190.324219 101.851562 C 140.4375 101.851562 99.996094 142.292969 99.996094 192.179688 C 99.996094 242.070312 140.4375 282.511719 190.324219 282.511719 C 240.214844 282.511719 280.652344 242.070312 280.652344 192.179688 Z M 145.394531 227.71875 L 157.648438 209.949219 C 164.796875 217.914062 181.132812 223.835938 192.367188 224.042969 C 201.761719 224.246094 210.542969 219.34375 210.542969 211.992188 C 210.542969 205.046875 204.824219 202.1875 190.527344 201.371094 C 171.535156 199.941406 148.867188 193 148.867188 170.125 C 148.867188 151.671875 164.007812 142.71875 179.441406 139.796875 L 179.441406 125.792969 L 201.210938 125.792969 L 201.210938 139.175781 C 212.273438 140.382812 221.484375 143.988281 230.558594 151.949219 L 216.671875 168.289062 C 209.523438 161.550781 201.355469 159.300781 191.753906 159.300781 C 179.910156 159.300781 173.375 162.976562 173.375 169.308594 C 173.375 175.84375 179.296875 179.519531 192.164062 180.339844 C 211.15625 181.5625 235.253906 185.851562 235.253906 212.605469 C 235.253906 228.355469 223.851562 242.171875 201.210938 245.105469 L 201.210938 258.570312 L 179.441406 258.570312 L 179.441406 244.953125 C 167.753906 243.417969 156.242188 239.015625 145.394531 227.71875 Z M 145.394531 227.71875 " fill-opacity="1" fill-rule="nonzero"/></svg>